<?xml version="1.0" encoding="UTF-8" standalone="no"?>
<svg
   clip-rule="evenodd"
   fill-rule="evenodd"
   stroke-linejoin="round"
   stroke-miterlimit="2"
   viewBox="0 0 16 16"
   version="1.1"
   id="svg32"
   sodipodi:docname="icon.svg"
   inkscape:version="1.2.1 (9c6d41e410, 2022-07-14)"
   xml:space="preserve"
   inkscape:export-filename="icon.svg"
   inkscape:export-xdpi="96"
   inkscape:export-ydpi="96"
   width="16"
   height="16"
   xmlns:inkscape="http://www.inkscape.org/namespaces/inkscape"
   xmlns:sodipodi="http://sodipodi.sourceforge.net/DTD/sodipodi-0.dtd"
   xmlns="http://www.w3.org/2000/svg"
   xmlns:svg="http://www.w3.org/2000/svg"><defs
     id="defs36" /><sodipodi:namedview
     id="namedview34"
     pagecolor="#505050"
     bordercolor="#ffffff"
     borderopacity="1"
     inkscape:showpageshadow="0"
     inkscape:pageopacity="0"
     inkscape:pagecheckerboard="1"
     inkscape:deskcolor="#505050"
     showgrid="true"
     inkscape:zoom="38.183766"
     inkscape:cx="3.4700611"
     inkscape:cy="9.2316719"
     inkscape:window-width="1920"
     inkscape:window-height="1051"
     inkscape:window-x="-9"
     inkscape:window-y="-9"
     inkscape:window-maximized="1"
     inkscape:current-layer="svg32"
     inkscape:lockguides="false"><inkscape:grid
       type="xygrid"
       id="grid1655" /></sodipodi:namedview><path
     id="path30"
     style="display:inline;fill:#8eef98;fill-rule:nonzero"
     d="M 3 1 C 1.9030011 1 1 1.9030011 1 3 L 1 13 C 1 14.096999 1.9030011 15 3 15 L 13 15 C 14.096999 15 15 14.096999 15 13 L 15 3 C 15 1.9030011 14.096999 1 13 1 L 3 1 z M 3 3 L 13 3 L 13 13 L 3 13 L 3 3 z M 5 4 C 4.4460006 4 4 4.4460009 4 5 L 4 6 C 4 6.5539991 4.4460006 7 5 7 L 7 7 C 7.5539991 7 8 6.5539991 8 6 L 8 5 C 8 4.4460009 7.5539991 4 7 4 L 5 4 z M 10 4 C 9.4460006 4 9 4.4460006 9 5 L 9 11 C 9 11.553999 9.4460006 12 10 12 L 11 12 C 11.553999 12 12 11.553999 12 11 L 12 5 C 12 4.4460006 11.553999 4 11 4 L 10 4 z M 5 8 C 4.4460006 8 4 8.4460007 4 9 L 4 11 C 4 11.553999 4.4460006 12 5 12 L 6.9863281 12 C 7.5403275 12 7.9863281 11.553999 7.9863281 11 L 7.9863281 9 C 7.9863281 8.4460007 7.5403275 8 6.9863281 8 L 5 8 z "
     inkscape:label="Icon" /></svg>
