<?xml version="1.0" encoding="UTF-8" standalone="no"?>
<svg
   clip-rule="evenodd"
   fill-rule="evenodd"
   stroke-linejoin="round"
   stroke-miterlimit="2"
   viewBox="0 0 16 16"
   version="1.1"
   id="svg32"
   sodipodi:docname="icon.svg"
   inkscape:version="1.2.1 (9c6d41e410, 2022-07-14)"
   xmlns:inkscape="http://www.inkscape.org/namespaces/inkscape"
   xmlns:sodipodi="http://sodipodi.sourceforge.net/DTD/sodipodi-0.dtd"
   xmlns="http://www.w3.org/2000/svg"
   xmlns:svg="http://www.w3.org/2000/svg">
  <defs
     id="defs36" />
  <sodipodi:namedview
     id="namedview34"
     pagecolor="#505050"
     bordercolor="#ffffff"
     borderopacity="1"
     inkscape:showpageshadow="0"
     inkscape:pageopacity="0"
     inkscape:pagecheckerboard="1"
     inkscape:deskcolor="#505050"
     showgrid="false"
     inkscape:zoom="19.091883"
     inkscape:cx="11.942248"
     inkscape:cy="3.6141013"
     inkscape:window-width="1920"
     inkscape:window-height="1051"
     inkscape:window-x="-9"
     inkscape:window-y="-9"
     inkscape:window-maximized="1"
     inkscape:current-layer="g28" />
  <g
     id="g28"
     inkscape:label="g28"
     transform="matrix(-1,0,0,1,16.13732,-0.13032037)">
    <rect
       style="fill:#8eef98;fill-rule:nonzero;stroke-width:1.08499"
       x="4.0009999"
       y="4.0159998"
       width="8.0381279"
       height="2.9350581"
       rx="0.67422575"
       ry="0"
       id="rect20" />
    <rect
       style="fill:#8eef98;fill-rule:nonzero;stroke-width:0.598198"
       x="4.0902371"
       y="7.7754846"
       width="3.006"
       height="1.7906324"
       rx="0.47211024"
       ry="0"
       id="rect22" />
    <rect
       style="fill:#8eef98;fill-rule:nonzero;stroke-width:0.616477"
       x="4.0787644"
       y="10.272041"
       width="3.006"
       height="1.9017435"
       rx="0.52766579"
       ry="0"
       id="rect22-3" />
    <rect
       style="fill:#8eef98;fill-rule:nonzero;stroke-width:1.50227"
       x="8.0064449"
       y="7.7129316"
       width="4.0050001"
       height="4.4910631"
       rx="0.81667602"
       ry="0"
       id="rect24" />
  </g>
  <path
     d="M 1,3 C 1,1.903 1.903,1 3,1 h 10 c 1.097,0 2,0.903 2,2 v 10 c 0,1.097 -0.903,2 -2,2 H 3 C 1.903,15 1,14.097 1,13 Z M 13,13 V 3 H 3 v 10 z"
     fill-rule="nonzero"
     style="fill:#8eef98;fill-rule:nonzero"
     id="path30" />
</svg>
